<svg width="155" height="16" viewBox="0 0 155 16" fill="none" xmlns="http://www.w3.org/2000/svg">
<path d="M6.40008 3.32419C5.56124 3.32419 4.8156 3.63487 4.2253 4.22517C3.635 4.81547 3.32431 5.56111 3.32431 6.39996C3.32431 7.2388 3.635 7.98444 4.2253 8.57474C4.8156 9.16504 5.56124 9.47572 6.40008 9.47572H12.1167V12.8H6.40008C5.25055 12.8 4.16316 12.5204 3.20004 11.9301C2.20585 11.3709 1.42914 10.5942 0.869914 9.6C0.310683 8.60582 0 7.54949 0 6.39996C0 5.25043 0.279615 4.16304 0.869914 3.19992C1.42914 2.20573 2.20585 1.42902 3.20004 0.869793C4.19423 0.310562 5.25055 -0.00012207 6.40008 -0.00012207H12.1167V3.32419H6.40008Z" fill="white"/>
<path d="M24.3264 12.8V8.10872H17.1807V12.8H13.8564V-0.00012207H17.1807V5.15722H24.2953V-0.00012207H27.6507V12.8H24.3264Z" fill="white"/>
<path d="M41.8803 12.7691H33.9579L35.5734 9.44478H38.4317L36.2569 5.06415L32.4666 12.7691H28.7694L34.5481 1.05633C34.7035 0.714575 34.952 0.466028 35.2627 0.279618C35.5734 0.0932079 35.9152 0 36.288 0C36.6608 0 37.0026 0.0932079 37.3132 0.279618C37.6239 0.466028 37.8725 0.745643 38.0278 1.05633L42.9677 11.0603C43.1541 11.4642 43.1541 11.8371 42.9055 12.2099C42.657 12.5827 42.3152 12.7691 41.8803 12.7691Z" fill="white"/>
<path d="M54.5558 -0.00012207V3.32419H49.7402V12.8H46.4159V3.32419H41.6314V-0.00012207H54.5558Z" fill="white"/>
<path d="M68.8787 6.15141C69.5932 6.92812 69.935 7.82911 69.935 8.82329C69.935 9.94176 69.5311 10.8738 68.7544 11.6505C67.9777 12.4272 67.0456 12.8 65.9272 12.8H55.83V-0.00012207H65.5543C66.6417 -0.00012207 67.5738 0.372697 68.3505 1.14941C69.1272 1.92612 69.5 2.85817 69.5 3.94556C69.5 4.7844 69.3136 5.49898 68.8787 6.15141ZM65.834 9.50679C66.0514 9.50679 66.2379 9.44466 66.3932 9.28932C66.5485 9.13398 66.6107 8.97863 66.6107 8.76115C66.6107 8.54368 66.5485 8.35727 66.3932 8.233C66.2379 8.07766 66.0514 8.01552 65.834 8.01552H60.8941V4.90868H65.4301C65.6476 4.90868 65.8029 4.84654 65.9582 4.6912C66.1136 4.53586 66.1757 4.38052 66.1757 4.16304C66.1757 3.94556 66.1136 3.75915 65.9582 3.63487C65.8029 3.47953 65.6476 3.4174 65.4301 3.4174H59.1853V9.56893H65.834V9.50679Z" fill="white"/>
<path d="M81.3056 -0.00012207C82.4552 -0.00012207 83.5426 0.279494 84.5057 0.869793C85.4999 1.42902 86.2766 2.20573 86.8358 3.19992C87.395 4.19411 87.7057 5.25043 87.7057 6.39996C87.7057 7.26987 87.5504 8.07765 87.2086 8.88543C86.8669 9.66213 86.4008 10.3456 85.8416 10.9359C85.2824 11.4952 84.5989 11.9612 83.7911 12.3029C83.0144 12.6447 82.1756 12.8 81.3056 12.8H77.4842C76.3347 12.8 75.2473 12.5204 74.2842 11.9301C73.29 11.3709 72.5133 10.5942 71.9541 9.6C71.3948 8.60582 71.0841 7.54949 71.0841 6.39996C71.0841 5.25043 71.3638 4.16304 71.9541 3.19992C72.5133 2.20573 73.29 1.42902 74.2842 0.869793C75.2784 0.310562 76.3347 -0.00012207 77.4842 -0.00012207H81.3056ZM81.3056 9.47572C82.1445 9.47572 82.8591 9.16504 83.4804 8.57474C84.0707 7.98444 84.3814 7.2388 84.3814 6.39996C84.3814 5.56111 84.0707 4.81547 83.4804 4.22517C82.8901 3.63487 82.1445 3.32419 81.3056 3.32419H77.4842C76.6454 3.32419 75.8997 3.63487 75.3094 4.22517C74.7191 4.81547 74.4085 5.56111 74.4085 6.39996C74.4085 7.2388 74.7191 7.98444 75.3094 8.57474C75.8997 9.16504 76.6454 9.47572 77.4842 9.47572H81.3056Z" fill="white"/>
<path d="M101.345 -0.00012207V3.32419H96.5294V12.8H93.2051V3.32419H88.4206V-0.00012207H101.345Z" fill="white"/>
<path d="M105.974 12.8H102.65V-0.00012207H105.974V12.8Z" fill="white"/>
<path d="M136.266 -0.00012207H139.59V5.71646C139.59 6.99026 139.279 8.17086 138.627 9.25825C138.006 10.3456 137.136 11.2156 136.048 11.8369C134.961 12.4583 133.78 12.8 132.507 12.8C131.233 12.8 130.052 12.4894 128.965 11.8369C127.877 11.2156 127.007 10.3456 126.386 9.25825C125.765 8.17086 125.423 6.99026 125.423 5.71646V-0.00012207H128.747V5.71646C128.747 6.74171 129.12 7.6427 129.835 8.35727C130.58 9.10291 131.45 9.44466 132.475 9.44466C132.973 9.44466 133.47 9.35145 133.936 9.16504C134.402 8.97863 134.806 8.69902 135.147 8.35727C135.489 8.01552 135.769 7.61162 135.955 7.1456C136.142 6.67957 136.235 6.18248 136.235 5.68539V-0.00012207H136.266Z" fill="white"/>
<path d="M155 3.32419H144.779V4.90868H153.944V7.86017H144.779V9.44466H155V12.8H141.454V-0.00012207H155V3.32419Z" fill="white"/>
<path d="M124.18 6.39996C124.18 5.25043 123.901 4.16304 123.31 3.19992C122.751 2.20573 121.974 1.42902 120.98 0.869793C119.986 0.310562 118.93 -0.00012207 117.78 -0.00012207H113.959C112.809 -0.00012207 111.722 0.279494 110.759 0.869793C109.765 1.42902 108.988 2.20573 108.429 3.19992C107.869 4.19411 107.559 5.25043 107.559 6.39996C107.559 7.54949 107.838 8.63688 108.429 9.6C108.988 10.5942 109.765 11.3709 110.759 11.9301C111.753 12.4894 112.809 12.8 113.959 12.8H114.394H117.345H117.78C118.65 12.8 119.458 12.6447 120.266 12.3029C120.763 12.0855 121.229 11.8058 121.664 11.4952L124.211 15.3787V6.39996H124.18ZM119.955 8.57474C119.365 9.16504 118.619 9.47572 117.78 9.47572H117.345H114.394H113.959C113.12 9.47572 112.374 9.16504 111.784 8.57474C111.194 7.98444 110.883 7.2388 110.883 6.39996C110.883 5.56111 111.194 4.81547 111.784 4.22517C112.374 3.63487 113.12 3.32419 113.959 3.32419H117.78C118.339 3.32419 118.837 3.44846 119.303 3.72808C119.769 4.00769 120.141 4.38051 120.421 4.84654C120.701 5.31256 120.825 5.84073 120.825 6.39996C120.856 7.2388 120.576 7.98444 119.955 8.57474Z" fill="white"/>
</svg>
