<svg width="163" height="24" viewBox="0 0 163 24" fill="none" xmlns="http://www.w3.org/2000/svg">
<g filter="url(#filter0_d_2006_2)">
<path d="M9.40008 5.32419C8.56124 5.32419 7.8156 5.63487 7.2253 6.22517C6.635 6.81547 6.32431 7.56111 6.32431 8.39996C6.32431 9.2388 6.635 9.98444 7.2253 10.5747C7.8156 11.165 8.56124 11.4757 9.40008 11.4757H15.1167V14.8H9.40008C8.25055 14.8 7.16316 14.5204 6.20004 13.9301C5.20585 13.3709 4.42914 12.5942 3.86991 11.6C3.31068 10.6058 3 9.54949 3 8.39996C3 7.25043 3.27961 6.16304 3.86991 5.19992C4.42914 4.20573 5.20585 3.42902 6.20004 2.86979C7.19423 2.31056 8.25055 1.99988 9.40008 1.99988H15.1167V5.32419H9.40008Z" fill="white"/>
<path d="M27.3264 14.8V10.1087H20.1807V14.8H16.8564V1.99988H20.1807V7.15722H27.2953V1.99988H30.6507V14.8H27.3264Z" fill="white"/>
<path d="M44.8803 14.7691H36.9579L38.5734 11.4448H41.4317L39.2569 7.06415L35.4666 14.7691H31.7694L37.5481 3.05633C37.7035 2.71458 37.952 2.46603 38.2627 2.27962C38.5734 2.09321 38.9152 2 39.288 2C39.6608 2 40.0026 2.09321 40.3132 2.27962C40.6239 2.46603 40.8725 2.74564 41.0278 3.05633L45.9677 13.0603C46.1541 13.4642 46.1541 13.8371 45.9055 14.2099C45.657 14.5827 45.3152 14.7691 44.8803 14.7691Z" fill="white"/>
<path d="M57.5558 1.99988V5.32419H52.7402V14.8H49.4159V5.32419H44.6314V1.99988H57.5558Z" fill="white"/>
<path d="M71.8787 8.15141C72.5932 8.92812 72.935 9.82911 72.935 10.8233C72.935 11.9418 72.5311 12.8738 71.7544 13.6505C70.9777 14.4272 70.0456 14.8 68.9272 14.8H58.83V1.99988H68.5543C69.6417 1.99988 70.5738 2.3727 71.3505 3.14941C72.1272 3.92612 72.5 4.85817 72.5 5.94556C72.5 6.7844 72.3136 7.49898 71.8787 8.15141ZM68.834 11.5068C69.0514 11.5068 69.2379 11.4447 69.3932 11.2893C69.5485 11.134 69.6107 10.9786 69.6107 10.7612C69.6107 10.5437 69.5485 10.3573 69.3932 10.233C69.2379 10.0777 69.0514 10.0155 68.834 10.0155H63.8941V6.90868H68.4301C68.6476 6.90868 68.8029 6.84654 68.9582 6.6912C69.1136 6.53586 69.1757 6.38052 69.1757 6.16304C69.1757 5.94556 69.1136 5.75915 68.9582 5.63487C68.8029 5.47953 68.6476 5.4174 68.4301 5.4174H62.1853V11.5689H68.834V11.5068Z" fill="white"/>
<path d="M84.3056 1.99988C85.4552 1.99988 86.5426 2.27949 87.5057 2.86979C88.4999 3.42902 89.2766 4.20573 89.8358 5.19992C90.395 6.19411 90.7057 7.25043 90.7057 8.39996C90.7057 9.26987 90.5504 10.0776 90.2086 10.8854C89.8669 11.6621 89.4008 12.3456 88.8416 12.9359C88.2824 13.4952 87.5989 13.9612 86.7911 14.3029C86.0144 14.6447 85.1756 14.8 84.3056 14.8H80.4842C79.3347 14.8 78.2473 14.5204 77.2842 13.9301C76.29 13.3709 75.5133 12.5942 74.9541 11.6C74.3948 10.6058 74.0841 9.54949 74.0841 8.39996C74.0841 7.25043 74.3638 6.16304 74.9541 5.19992C75.5133 4.20573 76.29 3.42902 77.2842 2.86979C78.2784 2.31056 79.3347 1.99988 80.4842 1.99988H84.3056ZM84.3056 11.4757C85.1445 11.4757 85.8591 11.165 86.4804 10.5747C87.0707 9.98444 87.3814 9.2388 87.3814 8.39996C87.3814 7.56111 87.0707 6.81547 86.4804 6.22517C85.8901 5.63487 85.1445 5.32419 84.3056 5.32419H80.4842C79.6454 5.32419 78.8997 5.63487 78.3094 6.22517C77.7191 6.81547 77.4085 7.56111 77.4085 8.39996C77.4085 9.2388 77.7191 9.98444 78.3094 10.5747C78.8997 11.165 79.6454 11.4757 80.4842 11.4757H84.3056Z" fill="white"/>
<path d="M104.345 1.99988V5.32419H99.5294V14.8H96.2051V5.32419H91.4206V1.99988H104.345Z" fill="white"/>
<path d="M108.974 14.8H105.65V1.99988H108.974V14.8Z" fill="white"/>
<path d="M139.266 1.99988H142.59V7.71646C142.59 8.99026 142.279 10.1709 141.627 11.2582C141.006 12.3456 140.136 13.2156 139.048 13.8369C137.961 14.4583 136.78 14.8 135.507 14.8C134.233 14.8 133.052 14.4894 131.965 13.8369C130.877 13.2156 130.007 12.3456 129.386 11.2582C128.765 10.1709 128.423 8.99026 128.423 7.71646V1.99988H131.747V7.71646C131.747 8.74171 132.12 9.6427 132.835 10.3573C133.58 11.1029 134.45 11.4447 135.475 11.4447C135.973 11.4447 136.47 11.3514 136.936 11.165C137.402 10.9786 137.806 10.699 138.147 10.3573C138.489 10.0155 138.769 9.61162 138.955 9.1456C139.142 8.67957 139.235 8.18248 139.235 7.68539V1.99988H139.266Z" fill="white"/>
<path d="M158 5.32419H147.779V6.90868H156.944V9.86017H147.779V11.4447H158V14.8H144.454V1.99988H158V5.32419Z" fill="white"/>
<path d="M127.18 8.39996C127.18 7.25043 126.901 6.16304 126.31 5.19992C125.751 4.20573 124.974 3.42902 123.98 2.86979C122.986 2.31056 121.93 1.99988 120.78 1.99988H116.959C115.809 1.99988 114.722 2.27949 113.759 2.86979C112.765 3.42902 111.988 4.20573 111.429 5.19992C110.869 6.19411 110.559 7.25043 110.559 8.39996C110.559 9.54949 110.838 10.6369 111.429 11.6C111.988 12.5942 112.765 13.3709 113.759 13.9301C114.753 14.4894 115.809 14.8 116.959 14.8H117.394H120.345H120.78C121.65 14.8 122.458 14.6447 123.266 14.3029C123.763 14.0855 124.229 13.8058 124.664 13.4952L127.211 17.3787V8.39996H127.18ZM122.955 10.5747C122.365 11.165 121.619 11.4757 120.78 11.4757H120.345H117.394H116.959C116.12 11.4757 115.374 11.165 114.784 10.5747C114.194 9.98444 113.883 9.2388 113.883 8.39996C113.883 7.56111 114.194 6.81547 114.784 6.22517C115.374 5.63487 116.12 5.32419 116.959 5.32419H120.78C121.339 5.32419 121.837 5.44846 122.303 5.72808C122.769 6.00769 123.141 6.38051 123.421 6.84654C123.701 7.31256 123.825 7.84073 123.825 8.39996C123.856 9.2388 123.576 9.98444 122.955 10.5747Z" fill="white"/>
</g>
<defs>
<filter id="filter0_d_2006_2" x="0" y="-0.00012207" width="163" height="23.3788" filterUnits="userSpaceOnUse" color-interpolation-filters="sRGB">
<feFlood flood-opacity="0" result="BackgroundImageFix"/>
<feColorMatrix in="SourceAlpha" type="matrix" values="0 0 0 0 0 0 0 0 0 0 0 0 0 0 0 0 0 0 127 0" result="hardAlpha"/>
<feOffset dx="1" dy="2"/>
<feGaussianBlur stdDeviation="2"/>
<feComposite in2="hardAlpha" operator="out"/>
<feColorMatrix type="matrix" values="0 0 0 0 0.176471 0 0 0 0 0.196078 0 0 0 0 0.207843 0 0 0 0.1 0"/>
<feBlend mode="normal" in2="BackgroundImageFix" result="effect1_dropShadow_2006_2"/>
<feBlend mode="normal" in="SourceGraphic" in2="effect1_dropShadow_2006_2" result="shape"/>
</filter>
</defs>
</svg>
