<svg width="335" height="169" viewBox="0 0 335 169" fill="none" xmlns="http://www.w3.org/2000/svg">
<mask id="path-1-inside-1_1_28" fill="white">
<path fill-rule="evenodd" clip-rule="evenodd" d="M10 0C4.47715 0 0 4.47716 0 10V159C0 164.523 4.47714 169 9.99999 169H325C330.523 169 335 164.523 335 159V42.759L293 0H10Z"/>
</mask>
<path fill-rule="evenodd" clip-rule="evenodd" d="M10 0C4.47715 0 0 4.47716 0 10V159C0 164.523 4.47714 169 9.99999 169H325C330.523 169 335 164.523 335 159V42.759L293 0H10Z" fill="#2D3235"/>
<path d="M335 42.759H336.5V42.1456L336.07 41.7079L335 42.759ZM293 0L294.07 -1.05112L293.629 -1.5H293V0ZM1.5 10C1.5 5.30558 5.30558 1.5 10 1.5V-1.5C3.64872 -1.5 -1.5 3.64873 -1.5 10H1.5ZM1.5 159V10H-1.5V159H1.5ZM9.99999 167.5C5.30557 167.5 1.5 163.694 1.5 159H-1.5C-1.5 165.351 3.64872 170.5 9.99999 170.5V167.5ZM325 167.5H9.99999V170.5H325V167.5ZM333.5 159C333.5 163.694 329.694 167.5 325 167.5V170.5C331.351 170.5 336.5 165.351 336.5 159H333.5ZM333.5 42.759V159H336.5V42.759H333.5ZM291.93 1.05112L333.93 43.8102L336.07 41.7079L294.07 -1.05112L291.93 1.05112ZM10 1.5H293V-1.5H10V1.5Z" fill="url(#paint0_linear_1_28)" mask="url(#path-1-inside-1_1_28)"/>
<defs>
<linearGradient id="paint0_linear_1_28" x1="167.5" y1="0" x2="167.5" y2="162.892" gradientUnits="userSpaceOnUse">
<stop stop-color="#C99D67"/>
<stop offset="1" stop-color="#EABC8B"/>
</linearGradient>
</defs>
</svg>
