<svg width="82" height="48" viewBox="0 0 82 48" fill="none" xmlns="http://www.w3.org/2000/svg">
<g filter="url(#filter0_d_1_177)">
<path d="M6.05564 35.7502C5.65516 35.7502 5.29918 35.8985 5.01736 36.1803C4.73554 36.4621 4.58721 36.8181 4.58721 37.2186C4.58721 37.6191 4.73554 37.9751 5.01736 38.2569C5.29918 38.5387 5.65516 38.687 6.05564 38.687H8.78485V40.2741H6.05564C5.50684 40.2741 4.98769 40.1406 4.52788 39.8588C4.05324 39.5918 3.68242 39.221 3.41544 38.7464C3.14845 38.2717 3.00012 37.7674 3.00012 37.2186C3.00012 36.6698 3.13362 36.1507 3.41544 35.6908C3.68242 35.2162 4.05324 34.8454 4.52788 34.5784C5.00253 34.3114 5.50684 34.1631 6.05564 34.1631H8.78485V35.7502H6.05564Z" fill="white"/>
<path d="M14.6142 40.2744V38.0346H11.2027V40.2744H9.61557V34.1633H11.2027V36.6255H14.5993V34.1633H16.2013V40.2744H14.6142Z" fill="white"/>
<path d="M22.9942 40.2742H19.2119L19.9832 38.6871H21.3478L20.3095 36.5957L18.4999 40.2742H16.7349L19.4937 34.6823C19.5679 34.5191 19.6866 34.4005 19.8349 34.3115C19.9832 34.2225 20.1464 34.178 20.3244 34.178C20.5023 34.178 20.6655 34.2225 20.8138 34.3115C20.9622 34.4005 21.0808 34.534 21.155 34.6823L23.5134 39.4584C23.6024 39.6512 23.6024 39.8292 23.4837 40.0072C23.365 40.1852 23.2019 40.2742 22.9942 40.2742Z" fill="white"/>
<path d="M29.0463 34.1633V35.7504H26.7473V40.2744H25.1602V35.7504H22.876V34.1633H29.0463Z" fill="white"/>
<path d="M35.8841 37.0853C36.2253 37.4561 36.3884 37.8863 36.3884 38.3609C36.3884 38.8949 36.1956 39.3399 35.8248 39.7107C35.454 40.0815 35.009 40.2595 34.475 40.2595H29.6544V34.1484H34.297C34.8162 34.1484 35.2611 34.3264 35.632 34.6972C36.0028 35.0681 36.1808 35.513 36.1808 36.0322C36.1808 36.4327 36.0918 36.7738 35.8841 37.0853ZM34.4305 38.6872C34.5343 38.6872 34.6233 38.6576 34.6975 38.5834C34.7717 38.5092 34.8013 38.4351 34.8013 38.3312C34.8013 38.2274 34.7717 38.1384 34.6975 38.0791C34.6233 38.0049 34.5343 37.9753 34.4305 37.9753H32.0721V36.492H34.2377C34.3415 36.492 34.4157 36.4623 34.4899 36.3882C34.564 36.314 34.5937 36.2398 34.5937 36.136C34.5937 36.0322 34.564 35.9432 34.4899 35.8839C34.4157 35.8097 34.3415 35.78 34.2377 35.78H31.2563V38.7169H34.4305V38.6872Z" fill="white"/>
<path d="M41.817 34.1633C42.3658 34.1633 42.8849 34.2968 43.3447 34.5786C43.8194 34.8456 44.1902 35.2164 44.4572 35.6911C44.7242 36.1657 44.8725 36.67 44.8725 37.2189C44.8725 37.6342 44.7983 38.0198 44.6352 38.4055C44.472 38.7763 44.2495 39.1026 43.9825 39.3844C43.7156 39.6514 43.3892 39.8739 43.0036 40.0371C42.6328 40.2002 42.2323 40.2744 41.817 40.2744H39.9926C39.4438 40.2744 38.9246 40.1409 38.4648 39.8591C37.9902 39.5921 37.6194 39.2213 37.3524 38.7466C37.0854 38.272 36.937 37.7677 36.937 37.2189C36.937 36.67 37.0705 36.1509 37.3524 35.6911C37.6194 35.2164 37.9902 34.8456 38.4648 34.5786C38.9395 34.3117 39.4438 34.1633 39.9926 34.1633H41.817ZM41.817 38.6873C42.2175 38.6873 42.5586 38.539 42.8553 38.2571C43.1371 37.9753 43.2854 37.6193 43.2854 37.2189C43.2854 36.8184 43.1371 36.4624 42.8553 36.1806C42.5735 35.8987 42.2175 35.7504 41.817 35.7504H39.9926C39.5921 35.7504 39.2361 35.8987 38.9543 36.1806C38.6725 36.4624 38.5241 36.8184 38.5241 37.2189C38.5241 37.6193 38.6725 37.9753 38.9543 38.2571C39.2361 38.539 39.5921 38.6873 39.9926 38.6873H41.817Z" fill="white"/>
<path d="M51.3838 34.1633V35.7504H49.0848V40.2744H47.4977V35.7504H45.2135V34.1633H51.3838Z" fill="white"/>
<path d="M53.5941 40.2744H52.007V34.1633H53.5941V40.2744Z" fill="white"/>
<path d="M68.0561 34.1633H69.6432V36.8925C69.6432 37.5007 69.4949 38.0643 69.1834 38.5835C68.8867 39.1026 68.4714 39.5179 67.9523 39.8146C67.4331 40.1112 66.8695 40.2744 66.2614 40.2744C65.6532 40.2744 65.0896 40.126 64.5705 39.8146C64.0513 39.5179 63.636 39.1026 63.3393 38.5835C63.0427 38.0643 62.8795 37.5007 62.8795 36.8925V34.1633H64.4666V36.8925C64.4666 37.382 64.6446 37.8122 64.9858 38.1533C65.3417 38.5093 65.7571 38.6725 66.2465 38.6725C66.4839 38.6725 66.7212 38.628 66.9437 38.539C67.1662 38.45 67.359 38.3165 67.5221 38.1533C67.6853 37.9902 67.8188 37.7973 67.9078 37.5748C67.9968 37.3523 68.0413 37.115 68.0413 36.8777V34.1633H68.0561Z" fill="white"/>
<path d="M77.0003 35.7504H72.1203V36.5069H76.496V37.916H72.1203V38.6725H77.0003V40.2744H70.5332V34.1633H77.0003V35.7504Z" fill="white"/>
<path d="M62.286 37.2189C62.286 36.67 62.1525 36.1509 61.8707 35.6911C61.6037 35.2164 61.2329 34.8456 60.7582 34.5786C60.2836 34.3117 59.7793 34.1633 59.2305 34.1633H57.406C56.8572 34.1633 56.3381 34.2968 55.8783 34.5786C55.4036 34.8456 55.0328 35.2164 54.7658 35.6911C54.4989 36.1657 54.3505 36.67 54.3505 37.2189C54.3505 37.7677 54.484 38.2868 54.7658 38.7466C55.0328 39.2213 55.4036 39.5921 55.8783 39.8591C56.3529 40.126 56.8572 40.2744 57.406 40.2744H57.6137H59.0228H59.2305C59.6458 40.2744 60.0314 40.2002 60.4171 40.0371C60.6544 39.9332 60.8769 39.7997 61.0845 39.6514L62.3008 41.5055V37.2189H62.286ZM60.2687 38.2571C59.9869 38.539 59.6309 38.6873 59.2305 38.6873H59.0228H57.6137H57.406C57.0056 38.6873 56.6496 38.539 56.3678 38.2571C56.0859 37.9753 55.9376 37.6193 55.9376 37.2189C55.9376 36.8184 56.0859 36.4624 56.3678 36.1806C56.6496 35.8987 57.0056 35.7504 57.406 35.7504H59.2305C59.4975 35.7504 59.7348 35.8097 59.9573 35.9432C60.1798 36.0767 60.3577 36.2547 60.4912 36.4772C60.6247 36.6997 60.6841 36.9519 60.6841 37.2189C60.6989 37.6193 60.5654 37.9753 60.2687 38.2571Z" fill="white"/>
<path fill-rule="evenodd" clip-rule="evenodd" d="M33.3291 7.39143L30.4555 3V12.442C30.4261 12.7115 30.4112 12.9856 30.4112 13.2642C30.4112 14.5991 30.7375 15.8302 31.405 16.9575C32.0576 18.0848 32.9624 18.9747 34.0897 19.6422C35.217 20.2948 36.4481 20.636 37.783 20.636H38.2873H41.6692H42.1735C43.1673 20.636 44.1166 20.4432 45.0213 20.0427C45.5998 19.7905 46.1338 19.4791 46.6233 19.1231L49.5305 23.5729V13.2642H49.5453C49.5453 11.9292 49.219 10.6981 48.5515 9.57085C47.8989 8.44357 46.9941 7.55362 45.8668 6.88615C44.7395 6.23351 43.5084 5.89236 42.1735 5.89236H37.783C36.4481 5.89236 35.217 6.21868 34.0897 6.88615C33.8229 7.04059 33.5695 7.20915 33.3291 7.39143ZM42.1883 16.7943C43.1524 16.7943 43.9831 16.4532 44.6802 15.7709C45.3773 15.0738 45.7333 14.2431 45.7185 13.2642C45.7185 12.6115 45.5553 12.0182 45.2438 11.4843C44.9323 10.9503 44.5022 10.5201 43.9534 10.2087C43.4046 9.89717 42.8113 9.73401 42.1883 9.73401H37.7979C36.8041 9.73401 35.9734 10.0752 35.2911 10.7575C34.6088 11.4546 34.2677 12.2852 34.2677 13.2642C34.2677 14.258 34.6088 15.0886 35.2911 15.7709C35.9883 16.4532 36.8189 16.7943 37.7979 16.7943H38.3022H41.684H42.1883Z" fill="url(#paint0_linear_1_177)"/>
<path d="M33.3291 7.39143L33.1617 7.50094L33.2791 7.68033L33.4499 7.55079L33.3291 7.39143ZM30.4555 3L30.6229 2.89049L30.2555 2.3291V3H30.4555ZM30.4555 12.442L30.6543 12.4637L30.6555 12.4529V12.442H30.4555ZM31.405 16.9575L31.5781 16.8573L31.5771 16.8556L31.405 16.9575ZM34.0897 19.6422L33.9878 19.8143L33.9895 19.8153L34.0897 19.6422ZM45.0213 20.0427L44.9414 19.8594L44.9404 19.8598L45.0213 20.0427ZM46.6233 19.1231L46.7907 19.0137L46.6757 18.8376L46.5056 18.9613L46.6233 19.1231ZM49.5305 23.5729L49.363 23.6822L49.7305 24.2446V23.5729H49.5305ZM49.5305 13.2642V13.0642H49.3305V13.2642H49.5305ZM49.5453 13.2642V13.4642H49.7453V13.2642H49.5453ZM48.5515 9.57085L48.3784 9.67107L48.3794 9.67275L48.5515 9.57085ZM45.8668 6.88615L45.9687 6.71405L45.967 6.71306L45.8668 6.88615ZM34.0897 6.88615L34.1899 7.05924L34.1916 7.05824L34.0897 6.88615ZM44.6802 15.7709L44.8201 15.9138L44.8216 15.9123L44.6802 15.7709ZM45.7185 13.2642H45.5185L45.5185 13.2672L45.7185 13.2642ZM35.2911 10.7575L35.1497 10.616L35.1482 10.6176L35.2911 10.7575ZM35.2911 15.7709L35.1497 15.9123L35.1512 15.9138L35.2911 15.7709ZM33.4964 7.28192L30.6229 2.89049L30.2881 3.10951L33.1617 7.50094L33.4964 7.28192ZM30.2555 3V12.442H30.6555V3H30.2555ZM30.2567 12.4203C30.2264 12.6972 30.2112 12.9785 30.2112 13.2642H30.6112C30.6112 12.9927 30.6257 12.7259 30.6543 12.4637L30.2567 12.4203ZM30.2112 13.2642C30.2112 14.6335 30.5464 15.9 31.2329 17.0594L31.5771 16.8556C30.9286 15.7604 30.6112 14.5648 30.6112 13.2642H30.2112ZM31.2319 17.0577C31.9027 18.2163 32.8327 19.1304 33.9878 19.8143L34.1916 19.4701C33.0921 18.8191 32.2126 17.9533 31.5781 16.8573L31.2319 17.0577ZM33.9895 19.8153C35.1467 20.4852 36.4123 20.836 37.783 20.836V20.436C36.4839 20.436 35.2873 20.1045 34.1899 19.4691L33.9895 19.8153ZM37.783 20.836H38.2873V20.436H37.783V20.836ZM38.2873 20.836H41.6692V20.436H38.2873V20.836ZM41.6692 20.836H42.1735V20.436H41.6692V20.836ZM42.1735 20.836C43.194 20.836 44.171 20.6378 45.1023 20.2256L44.9404 19.8598C44.0621 20.2485 43.1405 20.436 42.1735 20.436V20.836ZM45.1013 20.226C45.6938 19.9678 46.2403 19.6489 46.7409 19.2848L46.5056 18.9613C46.0273 19.3092 45.5059 19.6133 44.9414 19.8594L45.1013 20.226ZM46.4558 19.2325L49.363 23.6822L49.6979 23.4635L46.7907 19.0137L46.4558 19.2325ZM49.7305 23.5729V13.2642H49.3305V23.5729H49.7305ZM49.5305 13.4642H49.5453V13.0642H49.5305V13.4642ZM49.7453 13.2642C49.7453 11.8949 49.4101 10.6284 48.7236 9.46896L48.3794 9.67275C49.0279 10.7679 49.3453 11.9636 49.3453 13.2642H49.7453ZM48.7246 9.47065C48.0538 8.31206 47.1238 7.398 45.9687 6.71405L45.7649 7.05824C46.8644 7.70924 47.7439 8.57509 48.3784 9.67106L48.7246 9.47065ZM45.967 6.71306C44.8098 6.04312 43.5442 5.69236 42.1735 5.69236V6.09236C43.4726 6.09236 44.6692 6.42391 45.7666 7.05923L45.967 6.71306ZM42.1735 5.69236H37.783V6.09236H42.1735V5.69236ZM37.783 5.69236C36.4137 5.69236 35.1472 6.02757 33.9878 6.71405L34.1916 7.05824C35.2868 6.40979 36.4824 6.09236 37.783 6.09236V5.69236ZM33.9895 6.71306C33.7156 6.8716 33.4553 7.04474 33.2082 7.23207L33.4499 7.55079C33.6837 7.37355 33.9302 7.20957 34.1899 7.05923L33.9895 6.71306ZM44.5403 15.628C43.88 16.2742 43.0994 16.5943 42.1883 16.5943V16.9943C43.2054 16.9943 44.0861 16.6322 44.8201 15.9138L44.5403 15.628ZM45.5185 13.2672C45.5325 14.189 45.1999 14.9684 44.5388 15.6295L44.8216 15.9123C45.5548 15.1791 45.9342 14.2972 45.9185 13.2612L45.5185 13.2672ZM45.0711 11.585C45.3645 12.0881 45.5185 12.6465 45.5185 13.2642H45.9185C45.9185 12.5765 45.7461 11.9484 45.4166 11.3835L45.0711 11.585ZM43.8547 10.3826C44.3724 10.6764 44.7772 11.0812 45.0711 11.585L45.4166 11.3835C45.0875 10.8194 44.632 10.3638 44.0521 10.0347L43.8547 10.3826ZM42.1883 9.93401C42.775 9.93401 43.3345 10.0874 43.8547 10.3826L44.0521 10.0347C43.4747 9.70698 42.8475 9.53401 42.1883 9.53401V9.93401ZM37.7979 9.93401H42.1883V9.53401H37.7979V9.93401ZM35.4326 10.8989C36.0764 10.255 36.8558 9.93401 37.7979 9.93401V9.53401C36.7523 9.53401 35.8704 9.89531 35.1497 10.616L35.4326 10.8989ZM34.4677 13.2642C34.4677 12.3378 34.7882 11.5573 35.4341 10.8974L35.1482 10.6176C34.4295 11.3519 34.0677 12.2327 34.0677 13.2642H34.4677ZM35.4326 15.6295C34.7887 14.9856 34.4677 14.2062 34.4677 13.2642H34.0677C34.0677 14.3097 34.429 15.1916 35.1497 15.9123L35.4326 15.6295ZM37.7979 16.5943C36.8714 16.5943 36.091 16.2738 35.431 15.628L35.1512 15.9138C35.8856 16.6325 36.7664 16.9943 37.7979 16.9943V16.5943ZM38.3022 16.5943H37.7979V16.9943H38.3022V16.5943ZM41.684 16.5943H38.3022V16.9943H41.684V16.5943ZM42.1883 16.5943H41.684V16.9943H42.1883V16.5943Z" fill="white"/>
<path d="M42.2324 14.0651C42.6912 14.0651 43.063 13.6932 43.063 13.2344C43.063 12.7757 42.6912 12.4038 42.2324 12.4038C41.7737 12.4038 41.4018 12.7757 41.4018 13.2344C41.4018 13.6932 41.7737 14.0651 42.2324 14.0651Z" fill="white" stroke="white" stroke-width="0.4"/>
<path d="M39.9928 14.0651C40.4515 14.0651 40.8234 13.6932 40.8234 13.2344C40.8234 12.7757 40.4515 12.4038 39.9928 12.4038C39.534 12.4038 39.1621 12.7757 39.1621 13.2344C39.1621 13.6932 39.534 14.0651 39.9928 14.0651Z" fill="white" stroke="white" stroke-width="0.4"/>
<path d="M37.7531 14.0651C38.2119 14.0651 38.5837 13.6932 38.5837 13.2344C38.5837 12.7757 38.2119 12.4038 37.7531 12.4038C37.2944 12.4038 36.9225 12.7757 36.9225 13.2344C36.9225 13.6932 37.2944 14.0651 37.7531 14.0651Z" fill="white" stroke="white" stroke-width="0.4"/>
</g>
<defs>
<filter id="filter0_d_1_177" x="0.00012207" y="0.329102" width="82.0002" height="47.1763" filterUnits="userSpaceOnUse" color-interpolation-filters="sRGB">
<feFlood flood-opacity="0" result="BackgroundImageFix"/>
<feColorMatrix in="SourceAlpha" type="matrix" values="0 0 0 0 0 0 0 0 0 0 0 0 0 0 0 0 0 0 127 0" result="hardAlpha"/>
<feOffset dx="1" dy="2"/>
<feGaussianBlur stdDeviation="2"/>
<feComposite in2="hardAlpha" operator="out"/>
<feColorMatrix type="matrix" values="0 0 0 0 1 0 0 0 0 1 0 0 0 0 1 0 0 0 0.09 0"/>
<feBlend mode="normal" in2="BackgroundImageFix" result="effect1_dropShadow_1_177"/>
<feBlend mode="normal" in="SourceGraphic" in2="effect1_dropShadow_1_177" result="shape"/>
</filter>
<linearGradient id="paint0_linear_1_177" x1="46.0297" y1="6.98489" x2="37.5755" y2="21.6279" gradientUnits="userSpaceOnUse">
<stop offset="0.3844" stop-color="#EABC8B"/>
<stop offset="0.7855" stop-color="#C99D67"/>
</linearGradient>
</defs>
</svg>
