<svg width="32" height="50" viewBox="0 0 32 50" fill="none" xmlns="http://www.w3.org/2000/svg">
<path d="M16 50C21.5228 50 26 47.7614 26 45C26 42.2386 21.5228 40 16 40C10.4771 40 6 42.2386 6 45C6 47.7614 10.4771 50 16 50Z" fill="white" fill-opacity="0.3"/>
<path fill-rule="evenodd" clip-rule="evenodd" d="M31.9817 15.8991C32.1456 19.3335 31.1941 22.0818 29.7675 24.8274C29.264 25.7967 28.7011 26.7653 28.1072 27.7629C26.6052 30.2874 24.9732 32.778 23.3627 35.2357C22.687 36.2669 22.0151 37.2924 21.3581 38.3121C21.0694 38.7602 20.7924 39.2432 20.5115 39.7327C19.8283 40.9236 19.1228 42.1535 18.173 43.0172C17.3061 43.806 16.0641 44.2568 14.9854 43.8438C14.0326 43.4795 13.4038 42.5467 12.8364 41.666C11.471 39.546 10.1057 37.4259 8.74042 35.3059C7.38123 33.1953 6.02204 31.0848 4.66268 28.9742C2.15995 25.0883 0 21.6262 0 16.7542C0 7.28586 7.5011 -0.348019 16.6199 0.0122483C24.8459 0.336691 31.5711 7.29059 31.9817 15.8991ZM23 16C23 19.866 19.866 23 16 23C12.134 23 9 19.866 9 16C9 12.134 12.134 9 16 9C19.866 9 23 12.134 23 16Z" fill="url(#paint0_linear_2024_96)"/>
<defs>
<linearGradient id="paint0_linear_2024_96" x1="16" y1="0" x2="16" y2="44" gradientUnits="userSpaceOnUse">
<stop stop-color="#C99D67"/>
<stop offset="1" stop-color="#EABC8B"/>
</linearGradient>
</defs>
</svg>
